<svg xmlns="http://www.w3.org/2000/svg" width="700" height="150" viewBox="0 0 700 150">
  <rect width="700" height="150" fill="#0D1117"/>
  <style>
    text { font-family: 'Courier New', monospace; font-size: 14px; fill: #00FF41; }
    .dim { fill: #005500; }
    .bright { fill: #AAFFAA; }

    @keyframes drop { 0%{opacity:0} 5%{opacity:1} 85%{opacity:1} 100%{opacity:0} }
    @keyframes pulse { 0%,100%{opacity:1;fill:#FFFFFF} 50%{opacity:0.4;fill:#00FF41} }

    .d1  { animation: drop 2.0s ease-in-out infinite 0.0s; }
    .d2  { animation: drop 2.3s ease-in-out infinite 0.4s; }
    .d3  { animation: drop 1.8s ease-in-out infinite 0.8s; }
    .d4  { animation: drop 2.5s ease-in-out infinite 0.2s; }
    .d5  { animation: drop 2.1s ease-in-out infinite 1.0s; }
    .d6  { animation: drop 1.9s ease-in-out infinite 0.6s; }
    .d7  { animation: drop 2.4s ease-in-out infinite 0.3s; }
    .d8  { animation: drop 2.2s ease-in-out infinite 0.9s; }
    .d9  { animation: drop 1.7s ease-in-out infinite 1.2s; }
    .d10 { animation: drop 2.6s ease-in-out infinite 0.5s; }
    .d11 { animation: drop 2.0s ease-in-out infinite 1.4s; }
    .d12 { animation: drop 2.3s ease-in-out infinite 0.7s; }
    .d13 { animation: drop 1.9s ease-in-out infinite 1.6s; }
    .d14 { animation: drop 2.1s ease-in-out infinite 0.1s; }
    .title { animation: pulse 1.5s ease-in-out infinite; font-size: 22px; font-weight: bold; }
  </style>

  <!-- col 0 x=10 -->
  <text class="dim d1"    x="10" y="20">1</text>
  <text class="bright d1" x="10" y="36">V</text>
  <text class="dim d1"    x="10" y="52">0</text>
  <text class="dim d1"    x="10" y="68">1</text>
  <text class="dim d1"    x="10" y="84">0</text>
  <text class="bright d1" x="10" y="100">1</text>
  <text class="dim d1"    x="10" y="116">0</text>

  <!-- col 1 x=60 -->
  <text class="dim d2"    x="60" y="30">0</text>
  <text class="bright d2" x="60" y="46">I</text>
  <text class="dim d2"    x="60" y="62">1</text>
  <text class="dim d2"    x="60" y="78">0</text>
  <text class="bright d2" x="60" y="94">C</text>
  <text class="dim d2"    x="60" y="110">1</text>

  <!-- col 2 x=110 -->
  <text class="dim d3"    x="110" y="18">1</text>
  <text class="bright d3" x="110" y="34">C</text>
  <text class="dim d3"    x="110" y="50">0</text>
  <text class="dim d3"    x="110" y="66">1</text>
  <text class="bright d3" x="110" y="82">T</text>
  <text class="dim d3"    x="110" y="98">0</text>
  <text class="dim d3"    x="110" y="114">1</text>

  <!-- col 3 x=160 -->
  <text class="dim d4"    x="160" y="25">0</text>
  <text class="bright d4" x="160" y="41">T</text>
  <text class="dim d4"    x="160" y="57">1</text>
  <text class="dim d4"    x="160" y="73">0</text>
  <text class="bright d4" x="160" y="89">O</text>
  <text class="dim d4"    x="160" y="105">1</text>

  <!-- col 4 x=210 -->
  <text class="dim d5"    x="210" y="20">1</text>
  <text class="bright d5" x="210" y="36">O</text>
  <text class="dim d5"    x="210" y="52">0</text>
  <text class="dim d5"    x="210" y="68">1</text>
  <text class="bright d5" x="210" y="84">R</text>
  <text class="dim d5"    x="210" y="100">0</text>
  <text class="dim d5"    x="210" y="116">1</text>

  <!-- CENTER TITLE -->
  <text class="title" x="268" y="82" text-anchor="middle">VICTOR NUNEZ</text>
  <text class="dim"   x="222" y="100" font-size="11">[ Backend Developer · Paraguay 🇵🇾 ]</text>

  <!-- col 9 x=430 -->
  <text class="dim d7"    x="430" y="22">0</text>
  <text class="bright d7" x="430" y="38">N</text>
  <text class="dim d7"    x="430" y="54">1</text>
  <text class="dim d7"    x="430" y="70">0</text>
  <text class="bright d7" x="430" y="86">U</text>
  <text class="dim d7"    x="430" y="102">1</text>
  <text class="dim d7"    x="430" y="118">0</text>

  <!-- col 10 x=480 -->
  <text class="dim d8"    x="480" y="30">1</text>
  <text class="bright d8" x="480" y="46">E</text>
  <text class="dim d8"    x="480" y="62">0</text>
  <text class="dim d8"    x="480" y="78">1</text>
  <text class="bright d8" x="480" y="94">Z</text>
  <text class="dim d8"    x="480" y="110">0</text>

  <!-- col 11 x=530 -->
  <text class="dim d9"    x="530" y="18">0</text>
  <text class="bright d9" x="530" y="34">P</text>
  <text class="dim d9"    x="530" y="50">1</text>
  <text class="dim d9"    x="530" y="66">0</text>
  <text class="bright d9" x="530" y="82">Y</text>
  <text class="dim d9"    x="530" y="98">1</text>
  <text class="dim d9"    x="530" y="114">0</text>

  <!-- col 12 x=580 -->
  <text class="dim d10"    x="580" y="25">1</text>
  <text class="bright d10" x="580" y="41">D</text>
  <text class="dim d10"    x="580" y="57">0</text>
  <text class="dim d10"    x="580" y="73">1</text>
  <text class="bright d10" x="580" y="89">E</text>
  <text class="dim d10"    x="580" y="105">0</text>

  <!-- col 13 x=630 -->
  <text class="dim d11"    x="630" y="20">0</text>
  <text class="bright d11" x="630" y="36">V</text>
  <text class="dim d11"    x="630" y="52">1</text>
  <text class="dim d11"    x="630" y="68">0</text>
  <text class="bright d11" x="630" y="84">1</text>
  <text class="dim d11"    x="630" y="100">0</text>
  <text class="dim d11"    x="630" y="116">1</text>

  <!-- col 14 x=675 -->
  <text class="dim d12"    x="675" y="30">1</text>
  <text class="bright d12" x="675" y="46">0</text>
  <text class="dim d12"    x="675" y="62">1</text>
  <text class="dim d12"    x="675" y="78">0</text>
  <text class="bright d12" x="675" y="94">1</text>
  <text class="dim d12"    x="675" y="110">0</text>
</svg>
